<mxfile host="app.diagrams.net" agent="Mozilla/5.0 (Macintosh; Intel Mac OS X 10.15; rv:138.0) Gecko/20100101 Firefox/138.0" version="27.0.1">
  <diagram name="Page-1" id="dWWF2sALLaQqcDyqyGqG">
    <mxGraphModel dx="612" dy="803" grid="1" gridSize="10" guides="1" tooltips="1" connect="1" arrows="1" fold="1" page="1" pageScale="1" pageWidth="850" pageHeight="1100" math="0" shadow="0">
      <root>
        <mxCell id="0" />
        <mxCell id="1" parent="0" />
        <mxCell id="1stwL0OWLftKCb-0L8Gn-1" value="isHealthRecordSymmetric(head) -&amp;gt;bool" style="text;html=1;align=center;verticalAlign=middle;whiteSpace=wrap;rounded=0;" vertex="1" parent="1">
          <mxGeometry x="220" y="680" width="260" height="30" as="geometry" />
        </mxCell>
        <mxCell id="1stwL0OWLftKCb-0L8Gn-2" value="&lt;div&gt;tests:&lt;/div&gt;&lt;div&gt;test_single&lt;/div&gt;&lt;div&gt;test_double&lt;/div&gt;&lt;div&gt;test_empty&lt;/div&gt;&lt;div&gt;test_odd&lt;/div&gt;&lt;div&gt;test_even&lt;/div&gt;" style="text;html=1;align=center;verticalAlign=middle;whiteSpace=wrap;rounded=0;" vertex="1" parent="1">
          <mxGeometry x="170" y="190" width="160" height="70" as="geometry" />
        </mxCell>
        <mxCell id="1stwL0OWLftKCb-0L8Gn-3" value="&lt;div&gt;Node&lt;/div&gt;&lt;div&gt;value&lt;/div&gt;&lt;div&gt;next&lt;/div&gt;" style="text;html=1;align=center;verticalAlign=middle;whiteSpace=wrap;rounded=0;" vertex="1" parent="1">
          <mxGeometry x="220" y="750" width="60" height="30" as="geometry" />
        </mxCell>
        <mxCell id="1stwL0OWLftKCb-0L8Gn-5" value="Head" style="text;html=1;align=center;verticalAlign=middle;whiteSpace=wrap;rounded=0;" vertex="1" parent="1">
          <mxGeometry x="100" y="750" width="60" height="30" as="geometry" />
        </mxCell>
        <mxCell id="1stwL0OWLftKCb-0L8Gn-6" value="1 0 1 0" style="text;html=1;align=center;verticalAlign=middle;whiteSpace=wrap;rounded=0;" vertex="1" parent="1">
          <mxGeometry x="320" y="260" width="60" height="30" as="geometry" />
        </mxCell>
        <mxCell id="1stwL0OWLftKCb-0L8Gn-8" value="1 &lt;span style=&quot;white-space: pre;&quot;&gt;&#x9;&lt;/span&gt;0&lt;span style=&quot;white-space: pre;&quot;&gt;&#x9;&lt;/span&gt; 1&lt;span style=&quot;white-space: pre;&quot;&gt;&#x9;&lt;/span&gt; 0&lt;span style=&quot;white-space: pre;&quot;&gt;&#x9;&lt;/span&gt;1" style="text;html=1;align=center;verticalAlign=middle;whiteSpace=wrap;rounded=0;" vertex="1" parent="1">
          <mxGeometry x="30" y="40" width="170" height="30" as="geometry" />
        </mxCell>
        <mxCell id="1stwL0OWLftKCb-0L8Gn-9" value="&lt;div&gt;find the middle of the list&lt;/div&gt;&lt;div&gt;&lt;br&gt;&lt;/div&gt;" style="text;html=1;align=center;verticalAlign=middle;whiteSpace=wrap;rounded=0;" vertex="1" parent="1">
          <mxGeometry x="90" y="310" width="190" height="30" as="geometry" />
        </mxCell>
        <mxCell id="1stwL0OWLftKCb-0L8Gn-10" value="&lt;div&gt;&lt;br&gt;&lt;/div&gt;&lt;div&gt;&lt;br&gt;&lt;/div&gt;&lt;div&gt;add current value to the stack&lt;/div&gt;&lt;div&gt;Fast increment by 2&lt;/div&gt;&lt;div&gt;Slow increment by 1&lt;/div&gt;&lt;div&gt;&lt;br&gt;&lt;/div&gt;&lt;div&gt;&lt;br&gt;&lt;/div&gt;" style="text;html=1;align=center;verticalAlign=middle;whiteSpace=wrap;rounded=0;" vertex="1" parent="1">
          <mxGeometry x="110" y="350" width="160" height="30" as="geometry" />
        </mxCell>
        <mxCell id="1stwL0OWLftKCb-0L8Gn-11" value="stack with half of elements in the list" style="text;html=1;align=center;verticalAlign=middle;whiteSpace=wrap;rounded=0;" vertex="1" parent="1">
          <mxGeometry x="300" y="360" width="140" height="30" as="geometry" />
        </mxCell>
        <mxCell id="1stwL0OWLftKCb-0L8Gn-12" value="&lt;div&gt;compare 2nd half to the first half&lt;/div&gt;&lt;div&gt;pop from stack and compare to remaining elements in the list&lt;/div&gt;" style="text;html=1;align=center;verticalAlign=middle;whiteSpace=wrap;rounded=0;" vertex="1" parent="1">
          <mxGeometry x="90" y="410" width="210" height="30" as="geometry" />
        </mxCell>
        <mxCell id="1stwL0OWLftKCb-0L8Gn-13" value="&lt;div&gt;Time Complexity: O(n)&lt;/div&gt;&lt;div&gt;Space Complexity: O(n) &lt;br&gt;&lt;/div&gt;" style="text;html=1;align=center;verticalAlign=middle;whiteSpace=wrap;rounded=0;" vertex="1" parent="1">
          <mxGeometry x="90" y="520" width="230" height="30" as="geometry" />
        </mxCell>
        <mxCell id="1stwL0OWLftKCb-0L8Gn-14" value="" style="shape=flexArrow;endArrow=classic;html=1;rounded=0;" edge="1" parent="1">
          <mxGeometry width="50" height="50" relative="1" as="geometry">
            <mxPoint x="170" y="170" as="sourcePoint" />
            <mxPoint x="170" y="100" as="targetPoint" />
          </mxGeometry>
        </mxCell>
        <mxCell id="1stwL0OWLftKCb-0L8Gn-17" value="Fast" style="edgeLabel;html=1;align=center;verticalAlign=middle;resizable=0;points=[];" vertex="1" connectable="0" parent="1stwL0OWLftKCb-0L8Gn-14">
          <mxGeometry y="-2" relative="1" as="geometry">
            <mxPoint as="offset" />
          </mxGeometry>
        </mxCell>
        <mxCell id="1stwL0OWLftKCb-0L8Gn-16" value="" style="shape=flexArrow;endArrow=classic;html=1;rounded=0;" edge="1" parent="1">
          <mxGeometry width="50" height="50" relative="1" as="geometry">
            <mxPoint x="150" y="280" as="sourcePoint" />
            <mxPoint x="150" y="210" as="targetPoint" />
          </mxGeometry>
        </mxCell>
        <mxCell id="1stwL0OWLftKCb-0L8Gn-18" value="Slow" style="edgeLabel;html=1;align=center;verticalAlign=middle;resizable=0;points=[];" vertex="1" connectable="0" parent="1stwL0OWLftKCb-0L8Gn-16">
          <mxGeometry x="0.0857" y="1" relative="1" as="geometry">
            <mxPoint as="offset" />
          </mxGeometry>
        </mxCell>
        <mxCell id="1stwL0OWLftKCb-0L8Gn-19" value="&lt;div&gt;Stack:&amp;nbsp;&lt;/div&gt;&lt;div&gt;0&lt;/div&gt;&lt;div&gt;1&lt;/div&gt;" style="text;html=1;align=center;verticalAlign=middle;whiteSpace=wrap;rounded=0;" vertex="1" parent="1">
          <mxGeometry x="190" y="100" width="170" height="30" as="geometry" />
        </mxCell>
      </root>
    </mxGraphModel>
  </diagram>
</mxfile>
